<svg width="192" height="192" viewBox="0 0 192 192" fill="none" xmlns="http://www.w3.org/2000/svg">
<g clip-path="url(#clip0_211_76)">
<g clip-path="url(#clip1_211_76)">
<path d="M133.599 58.5492C123.245 48.1947 109.704 42.9732 96.075 42.9732V96.0732L58.5511 133.597C79.2601 154.306 112.89 154.306 133.688 133.597C154.397 112.888 154.397 79.2582 133.599 58.5492ZM96.075 7.57324C47.2231 7.57324 7.57507 47.2212 7.57507 96.0732C7.57507 144.925 47.2231 184.573 96.075 184.573C144.927 184.573 184.575 144.925 184.575 96.0732C184.575 47.2212 144.927 7.57324 96.075 7.57324ZM96.075 166.873C56.9581 166.873 25.2751 135.19 25.2751 96.0732C25.2751 56.9562 56.9581 25.2732 96.075 25.2732C135.192 25.2732 166.875 56.9562 166.875 96.0732C166.875 135.19 135.192 166.873 96.075 166.873Z" fill="#51D04C"/>
</g>
</g>
<defs>
<clipPath id="clip0_211_76">
<rect width="192" height="192" fill="white"/>
</clipPath>
<clipPath id="clip1_211_76">
<rect width="212.4" height="212.4" fill="white" transform="translate(-10.125 -10.125)"/>
</clipPath>
</defs>
</svg>
